<svg width="48" height="48" viewBox="0 0 48 48" fill="none" xmlns="http://www.w3.org/2000/svg">
<rect x="0.5" y="0.5" width="47" height="47" stroke="#626262"/>
<path d="M25.9272 32.9084L24.7533 33.9542C24.2562 34.397 23.4525 34.397 22.9607 33.9542L12.6814 24.8014C12.1843 24.3586 12.1843 23.6425 12.6814 23.2045L22.9607 14.0469C23.4578 13.6041 24.2615 13.6041 24.7533 14.0469L25.9272 15.0927C26.4295 15.5402 26.4189 16.2704 25.906 16.7085L19.5343 22.1163H34.7312C35.4345 22.1163 36.0003 22.6203 36.0003 23.2469V24.7543C36.0003 25.3808 35.4345 25.8848 34.7312 25.8848H19.5343L25.906 31.2927C26.4242 31.7307 26.4348 32.4609 25.9272 32.9084Z" fill="#626262"/>
</svg>
