<svg width="48" height="48" viewBox="0 0 48 48" fill="none" xmlns="http://www.w3.org/2000/svg">
<rect x="0.5" y="0.5" width="47" height="47" stroke="#FFB533"/>
<path d="M22.3814 32.9084L23.5553 33.9542C24.0524 34.397 24.8561 34.397 25.3479 33.9542L35.6272 24.8014C36.1243 24.3586 36.1243 23.6425 35.6272 23.2045L25.3479 14.0469C24.8508 13.6041 24.0471 13.6041 23.5553 14.0469L22.3814 15.0927C21.8791 15.5402 21.8897 16.2704 22.4026 16.7085L28.7743 22.1163H13.5774C12.8741 22.1163 12.3083 22.6203 12.3083 23.2469V24.7543C12.3083 25.3808 12.8741 25.8848 13.5774 25.8848H28.7743L22.4026 31.2927C21.8844 31.7307 21.8738 32.4609 22.3814 32.9084Z" fill="#FFB533"/>
</svg>
